<?xml version="1.0" encoding="utf-8"?>
<!-- Generator: Adobe Illustrator 21.0.0, SVG Export Plug-In . SVG Version: 6.00 Build 0)  -->
<svg version="1.1" xmlns="http://www.w3.org/2000/svg" x="0px"
     y="0px"
     viewBox="0 0 24 24" style="enable-background:new 0 0 24 24;">
    <style type="text/css">
        .st0{fill:#7C7CDA;}
        .st1{fill:#DCDCFF;}
    </style>

    <g class="compress-handle">
        <path class="st0 "
              d="M4.1,12.4l-2-1.3c-0.3-0.2-0.6,0-0.6,0.3V14c0,0.3,0.3,0.5,0.6,0.3l2-1.3C4.4,12.9,4.4,12.5,4.1,12.4z"/>
        <path class="st0" d="M5.8,2.4L5.8,2.4c0.3,0,0.5,0.2,0.5,0.5v18.1c0,0.3-0.2,0.5-0.5,0.5l0,0c-0.3,0-0.5-0.2-0.5-0.5
	v-18C5.3,2.6,5.5,2.4,5.8,2.4z"/>
    </g>
    <g>
        <path class="st0" d="M18.2,2.4L18.2,2.4c0.3,0,0.5,0.2,0.5,0.5v18.1c0,0.3-0.2,0.5-0.5,0.5l0,0
	c-0.3,0-0.5-0.2-0.5-0.5v-18C17.7,2.6,17.9,2.4,18.2,2.4z"/>
        <path class="st0"
              d="M19.9,12.4l2-1.3c0.3-0.2,0.6,0,0.6,0.3V14c0,0.3-0.3,0.5-0.6,0.3l-2-1.3C19.7,12.9,19.7,12.5,19.9,12.4z"/>
    </g>
    <g class="compress-all">
        <rect x="8.5" y="2.7" class="st1" width="7" height="18.5"/>
        <path class="st0" d="M15.4,10.2c-0.1,0-0.2-0.1-0.2-0.2V9.5c0-0.1,0.1-0.2,0.2-0.2c0.1,0,0.2,0.1,0.2,0.2V10
	C15.6,10.1,15.6,10.2,15.4,10.2z"/>
        <path class="st0" d="M15.4,12.1c-0.1,0-0.2-0.1-0.2-0.2v-0.5c0-0.1,0.1-0.2,0.2-0.2c0.1,0,0.2,0.1,0.2,0.2
	v0.5C15.6,12.1,15.6,12.1,15.4,12.1z"/>
        <path class="st0" d="M15.4,14.1c-0.1,0-0.2-0.1-0.2-0.2v-0.5c0-0.1,0.1-0.2,0.2-0.2c0.1,0,0.2,0.1,0.2,0.2
	v0.5C15.6,14.1,15.6,14.1,15.4,14.1z"/>
        <path class="st0" d="M15.4,16.1c-0.1,0-0.2-0.1-0.2-0.2v-0.5c0-0.1,0.1-0.2,0.2-0.2c0.1,0,0.2,0.1,0.2,0.2
	v0.5C15.6,16.1,15.6,16.1,15.4,16.1z"/>
        <path class="st0" d="M15.4,18.3c-0.1,0-0.2-0.1-0.2-0.2v-0.5c0-0.1,0.1-0.2,0.2-0.2c0.1,0,0.2,0.1,0.2,0.2
	V18C15.6,18.1,15.6,18.3,15.4,18.3z"/>
        <path class="st0" d="M15.4,20.3c-0.1,0-0.2-0.1-0.2-0.2v-0.5c0-0.1,0.1-0.2,0.2-0.2c0.1,0,0.2,0.1,0.2,0.2
	V20C15.6,20.1,15.6,20.3,15.4,20.3z"/>
        <path class="st0" d="M14.3,21.3c0-0.1,0.1-0.2,0.2-0.2H15c0.1,0,0.2,0.1,0.2,0.2s-0.1,0.2-0.2,0.2h-0.5
	C14.4,21.5,14.3,21.4,14.3,21.3z"/>
        <path class="st0" d="M12.4,21.3c0-0.1,0.1-0.2,0.2-0.2h0.5c0.1,0,0.2,0.1,0.2,0.2s-0.1,0.2-0.2,0.2h-0.5
	C12.6,21.5,12.4,21.4,12.4,21.3z"/>
        <path class="st0" d="M10.6,21.3c0-0.1,0.1-0.2,0.2-0.2h0.5c0.1,0,0.2,0.1,0.2,0.2s-0.1,0.2-0.2,0.2h-0.5
	C10.7,21.5,10.6,21.4,10.6,21.3z"/>
        <path class="st0" d="M8.8,21.3C8.8,21.1,8.9,21,9,21h0.5c0.1,0,0.2,0.1,0.2,0.2s-0.2,0.2-0.2,0.2H9
	C8.8,21.5,8.8,21.4,8.8,21.3z"/>
        <path class="st0" d="M14.3,2.7c0-0.1,0.1-0.2,0.2-0.2H15c0.1,0,0.2,0.1,0.2,0.2S15.1,2.9,15,2.9h-0.5
	C14.4,2.9,14.3,2.8,14.3,2.7z"/>
        <path class="st0" d="M12.4,2.7c0-0.1,0.1-0.2,0.2-0.2h0.5c0.1,0,0.2,0.1,0.2,0.2s-0.1,0.2-0.2,0.2h-0.5
	C12.6,2.9,12.4,2.8,12.4,2.7z"/>
        <path class="st0" d="M10.6,2.7c0-0.1,0.1-0.2,0.2-0.2h0.5c0.1,0,0.2,0.1,0.2,0.2s-0.1,0.2-0.2,0.2h-0.5
	C10.7,2.9,10.6,2.8,10.6,2.7z"/>
        <path class="st0" d="M8.8,2.7c0-0.1,0.1-0.2,0.2-0.2h0.5c0.1,0,0.2,0.1,0.2,0.2S9.6,2.9,9.5,2.9H9
	C8.8,2.9,8.8,2.8,8.8,2.7z"/>
        <path class="st0" d="M15.4,4.2c-0.1,0-0.2-0.1-0.2-0.2V3.5c0-0.1,0.1-0.2,0.2-0.2c0.1,0,0.2,0.1,0.2,0.2V4
	C15.6,4.1,15.6,4.2,15.4,4.2z"/>
        <path class="st0" d="M15.4,8.2c-0.1,0-0.2-0.1-0.2-0.2V7.5c0-0.1,0.1-0.2,0.2-0.2c0.1,0,0.2,0.1,0.2,0.2V8
	C15.6,8.1,15.6,8.2,15.4,8.2z"/>
        <path class="st0" d="M15.4,6.2c-0.1,0-0.2-0.1-0.2-0.2V5.5c0-0.1,0.1-0.2,0.2-0.2c0.1,0,0.2,0.1,0.2,0.2V6
	C15.6,6.1,15.6,6.2,15.4,6.2z"/>
        <path class="st0" d="M8.5,10.2c-0.1,0-0.2-0.1-0.2-0.2V9.5c0-0.1,0.1-0.2,0.2-0.2c0.1,0,0.2,0.1,0.2,0.2V10
	C8.7,10.1,8.6,10.2,8.5,10.2z"/>
        <path class="st0" d="M8.5,12.1c-0.1,0-0.2-0.1-0.2-0.2v-0.5c0-0.1,0.1-0.2,0.2-0.2c0.1,0,0.2,0.1,0.2,0.2
	v0.5C8.7,12.1,8.6,12.1,8.5,12.1z"/>
        <path class="st0" d="M8.5,14.1c-0.1,0-0.2-0.1-0.2-0.2v-0.5c0-0.1,0.1-0.2,0.2-0.2c0.1,0,0.2,0.1,0.2,0.2
	v0.5C8.7,14.1,8.6,14.1,8.5,14.1z"/>
        <path class="st0" d="M8.5,16.1c-0.1,0-0.2-0.1-0.2-0.2v-0.5c0-0.1,0.1-0.2,0.2-0.2c0.1,0,0.2,0.1,0.2,0.2
	v0.5C8.7,16.1,8.6,16.1,8.5,16.1z"/>
        <path class="st0" d="M8.5,18.3c-0.1,0-0.2-0.1-0.2-0.2v-0.5c0-0.1,0.1-0.2,0.2-0.2c0.1,0,0.2,0.1,0.2,0.2
	V18C8.7,18.1,8.6,18.3,8.5,18.3z"/>
        <path class="st0" d="M8.5,20.3c-0.1,0-0.2-0.1-0.2-0.2v-0.5c0-0.1,0.1-0.2,0.2-0.2c0.1,0,0.2,0.1,0.2,0.2V20
	C8.7,20.1,8.6,20.3,8.5,20.3z"/>
        <path class="st0" d="M8.5,4.2C8.3,4.2,8.3,4.1,8.3,4V3.5c0-0.1,0.1-0.2,0.2-0.2c0.1,0,0.2,0.1,0.2,0.2V4
	C8.7,4.1,8.6,4.2,8.5,4.2z"/>
        <path class="st0" d="M8.5,8.2C8.3,8.2,8.3,8.1,8.3,8V7.5c0-0.1,0.1-0.2,0.2-0.2c0.1,0,0.2,0.1,0.2,0.2V8
	C8.7,8.1,8.6,8.2,8.5,8.2z"/>
        <path class="st0" d="M8.5,6.2C8.3,6.2,8.3,6.1,8.3,6V5.5c0-0.1,0.1-0.2,0.2-0.2c0.1,0,0.2,0.1,0.2,0.2V6
	C8.7,6.1,8.6,6.2,8.5,6.2z"/>
    </g>
</svg>
