<?xml version="1.0" encoding="utf-8"?>
<!-- Generator: Adobe Illustrator 21.0.0, SVG Export Plug-In . SVG Version: 6.00 Build 0)  -->
<svg version="1.1" xmlns="http://www.w3.org/2000/svg"
     viewBox="0 0 24 24" style="enable-background:new 0 0 24 24;">
    <style type="text/css">
        .st0{fill:#7C7CDA;}
        .st1{fill:#dCdCFF;}
        .st2{fill:#7C7CDA;stroke:#7C7CDA;stroke-width:0.5;stroke-miterlimit:10;}
        .st4{fill:#F04D58;}
        .st5{fill:#FFCDC9;}
        .st6{fill:#F04D58;stroke:#F04D58;stroke-width:0.25;stroke-miterlimit:10;}
    </style>
    <g class="icon-big">
        <path class="st0" d="M1.4,2c-0.6,0-1,0.4-1,1v17c0,0.6,0.4,1,1,1h13c0.6,0,1-0.4,1-1V6.2c0-0.1-0.1-0.3-0.1-0.4
		l-3.7-3.7c-0.1,0-0.3-0.1-0.4-0.1C11.2,2,1.4,2,1.4,2z M1.9,3h9v3c0,0.2,0.2,0.4,0.4,0.5h0.1h3v13c0,0.3-0.2,0.5-0.5,0.5h-12
		c-0.3,0-0.5-0.2-0.5-0.5v-16C1.4,3.2,1.6,3,1.9,3z"/>
        <g>
            <path class="st2" d="M3.8,15.3c-0.2,0-0.5-0.3-0.5-0.6V8.4c0-0.3,0.2-0.6,0.5-0.6h7.7c0.2,0,0.5,0.3,0.5,0.6v6.4
	c0,0.3-0.2,0.6-0.5,0.6H3.8V15.3z M3.7,13.3v1.6h7.8v-1.6l-1.9-2l-1.2,1.3L8.9,13c0.1,0.1,0.1,0.3,0,0.3c-0.1,0-0.2,0-0.2,0
	l-2.5-2.7L3.7,13.3z M9.8,10.7h0.1l1.8,1.8V8.2H3.8v4.4l2.2-2.4L6.2,10h0.1l1.9,2l1.3-1.4C9.6,10.7,9.6,10.7,9.8,10.7z"/>
        </g>
    </g>
    <g class="icon-small">
        <rect x="12.6" y="14" class="st5" width="10" height="8"/>
        <path class="st4" d="M12.6,13h10c0.6,0,1,0.4,1,1v8c0,0.6-0.4,1-1,1h-10c-0.6,0-1-0.4-1-1v-8
			C11.6,13.4,12,13,12.6,13z M12.6,14.5v7c0,0.3,0.2,0.5,0.5,0.5h9c0.3,0,0.5-0.2,0.5-0.5v-7c0-0.3-0.2-0.5-0.5-0.5h-9
			C12.8,14,12.6,14.2,12.6,14.5z"/>
        <g class="focus-pic">
            <path class="st6" d="M20.7,18.9c0,0,0-0.1-0.1-0.1l0,0c-0.1-0.1-0.4-0.2-0.8-0.2c-0.3,0-0.6,0-1,0.1c-0.2-0.1-0.3-0.2-0.5-0.3
	c-0.4-0.3-0.7-0.8-0.8-1.2c0,0,0-0.1,0-0.1c0,0,0.2-1.1,0.1-1.4c0,0,0-0.1,0-0.1v0c-0.1-0.1-0.2-0.2-0.3-0.2h-0.1
	c-0.2,0-0.4,0.1-0.4,0.2c-0.1,0.4,0,1.1,0.2,1.9L17,17.4c-0.2,0.4-0.4,0.8-0.5,1.1l0,0c-0.2,0.3-0.4,0.6-0.5,0.9l-0.2,0.1
	c0,0-0.3,0.1-0.4,0.2c-0.6,0.3-0.9,0.6-1,1c0,0.1,0,0.2,0.1,0.3l0.1,0.1c0.1,0,0.1,0,0.2,0c0.4,0,0.8-0.5,1.5-1.5
	c0.7-0.2,1.5-0.4,2.2-0.5c0.6,0.3,1.2,0.5,1.7,0.5c0.1,0,0.1,0,0.2,0c0.1,0,0.1-0.1,0.2-0.1C20.7,19.3,20.7,19.1,20.7,18.9z
	 M14.8,20.7L14.8,20.7c0.1-0.2,0.4-0.5,0.8-0.9c0,0,0.1-0.1,0.1-0.1C15.3,20.4,15,20.7,14.8,20.7z M17.3,15.4c0.1,0,0.2,0.3,0.2,0.6
	s-0.1,0.5-0.1,0.6c-0.1-0.2-0.1-0.5-0.1-0.8C17.2,15.8,17.2,15.4,17.3,15.4z M16.5,19.2c0.1-0.1,0.2-0.3,0.3-0.5
	c0.2-0.3,0.4-0.6,0.5-1c0.2,0.4,0.5,0.7,0.8,0.9c0,0,0.1,0.1,0.1,0.1C17.6,18.9,17,19,16.5,19.2z M20.5,19.2L20.5,19.2
	c0,0-0.1,0-0.2,0c-0.2,0-0.5-0.1-0.9-0.3c0.1,0,0.3,0,0.4,0c0.2,0,0.3,0,0.5,0.1C20.6,19,20.6,19.1,20.5,19.2z"/>
        </g>
    </g>
</svg>
