<?xml version="1.0" encoding="utf-8"?>
<!-- Generator: Adobe Illustrator 21.0.0, SVG Export Plug-In . SVG Version: 6.00 Build 0)  -->
<svg version="1.1" xmlns="http://www.w3.org/2000/svg"
     viewBox="0 0 24 24" style="enable-background:new 0 0 24 24;">
    <style type="text/css">
        .st0{fill:#7C7CDA;}
        .st1{fill:#dCdCFF;}
        .st2{fill:#7C7CDA;stroke:#7C7CDA;stroke-width:0.5;stroke-miterlimit:10;}
        .st4{fill:#99469D;}
        .st5{fill:#DDAADF;}
        .st6{fill:#99469D;stroke:#99469D;stroke-width:0.5;stroke-miterlimit:10;}
    </style>
    <g class="icon-big">
        <path class="st0" d="M1.4,2c-0.6,0-1,0.4-1,1v17c0,0.6,0.4,1,1,1h13c0.6,0,1-0.4,1-1V6.2c0-0.1-0.1-0.3-0.1-0.4
		l-3.7-3.7c-0.1,0-0.3-0.1-0.4-0.1C11.2,2,1.4,2,1.4,2z M1.9,3h9v3c0,0.2,0.2,0.4,0.4,0.5h0.1h3v13c0,0.3-0.2,0.5-0.5,0.5h-12
		c-0.3,0-0.5-0.2-0.5-0.5v-16C1.4,3.2,1.6,3,1.9,3z"/>
        <g>
            <path class="st2" d="M3.8,15.3c-0.2,0-0.5-0.3-0.5-0.6V8.4c0-0.3,0.2-0.6,0.5-0.6h7.7c0.2,0,0.5,0.3,0.5,0.6v6.4
	c0,0.3-0.2,0.6-0.5,0.6H3.8V15.3z M3.7,13.3v1.6h7.8v-1.6l-1.9-2l-1.2,1.3L8.9,13c0.1,0.1,0.1,0.3,0,0.3c-0.1,0-0.2,0-0.2,0
	l-2.5-2.7L3.7,13.3z M9.8,10.7h0.1l1.8,1.8V8.2H3.8v4.4l2.2-2.4L6.2,10h0.1l1.9,2l1.3-1.4C9.6,10.7,9.6,10.7,9.8,10.7z"/>
        </g>
    </g>
    <g class="icon-small">
        <rect x="12.6" y="14" class="st5" width="10" height="8"/>
        <path class="st4" d="M12.6,13h10c0.6,0,1,0.4,1,1v8c0,0.6-0.4,1-1,1h-10c-0.6,0-1-0.4-1-1v-8
			C11.6,13.4,12,13,12.6,13z M12.6,14.5v7c0,0.3,0.2,0.5,0.5,0.5h9c0.3,0,0.5-0.2,0.5-0.5v-7c0-0.3-0.2-0.5-0.5-0.5h-9
			C12.8,14,12.6,14.2,12.6,14.5z"/>
        <g class="focus-pic">
            <path class="st6" d="M14.5,20.8c-0.2,0-0.4-0.2-0.4-0.4V16c0-0.2,0.2-0.4,0.4-0.4H21c0.2,0,0.4,0.2,0.4,0.4v4.5
	c0,0.2-0.2,0.4-0.4,0.4H14.5z M14.4,19.4v1.1h6.6v-1.1l-1.6-1.4l-1,0.9l0.4,0.3c0.1,0.1,0.1,0.2,0,0.2c-0.1,0-0.2,0-0.2,0l-2.1-1.9
	L14.4,19.4z M19.5,17.6c0,0,0.1,0,0.1,0l1.5,1.3v-3.1h-6.6v3.1l1.9-1.7c0,0,0.1-0.1,0.1-0.1c0,0,0.1,0,0.1,0l1.6,1.4l1.1-1
	C19.4,17.6,19.4,17.6,19.5,17.6z"/>
        </g>
    </g>
</svg>
