<?xml version="1.0" encoding="utf-8"?>
<!-- Generator: Adobe Illustrator 21.0.0, SVG Export Plug-In . SVG Version: 6.00 Build 0)  -->
<svg version="1.1"  xmlns="http://www.w3.org/2000/svg" xmlns:xlink="http://www.w3.org/1999/xlink" x="0px" y="0px"
	 viewBox="0 0 180 220" style="enable-background:new 0 0 180 220;" xml:space="preserve">
<style type="text/css">
	.st0{fill:#7C7CDA;}
	.st1{fill:#7C7CDA;stroke:#7C7CDA;stroke-width:4;stroke-miterlimit:10;}
</style>
<g>
	<path class="st0" d="M25,15.6c-6,0-10,4-10,10v170c0,6,4,10,10,10h130c6,0,10-4,10-10v-138c0-1-1-3-1-4l-37-37c-1,0-3-1-4-1
		C123,15.6,25,15.6,25,15.6z M30,25.6h90v30c0,2,2,4,4,5h1h30v130c0,3-2,5-5,5H30c-3,0-5-2-5-5v-160C25,27.6,27,25.6,30,25.6z"/>
</g>
<g>
	<path class="st1" d="M47.1,147.6c-2.6,0-5.3-2.7-5.3-5.5V81.7c0-2.7,2.6-5.5,5.3-5.5h85.8c2.6,0,5.3,2.7,5.3,5.5v61.8
		c0,2.7-2.6,5.5-5.3,5.5H47.1V147.6z M45.8,128.4v15.1h87.2v-15.1l-21.1-19.2l-13.2,12.4l5.3,4.1c1.3,1.4,1.3,2.7,0,2.7
		c-1.3,0-2.6,0-2.6,0l-27.7-26.1L45.8,128.4z M113.1,103.7h1.3l19.8,17.8V79H47.1v42.6l25.1-23.3l1.3-1.4h1.3l21.1,19.2l14.5-13.7
		C111.8,103.7,111.8,103.7,113.1,103.7z"/>
</g>
</svg>
