<?xml version="1.0" encoding="utf-8"?>
<!-- Generator: Adobe Illustrator 21.0.0, SVG Export Plug-In . SVG Version: 6.00 Build 0)  -->
<svg version="1.1" xmlns="http://www.w3.org/2000/svg"
     viewBox="0 0 24 24" style="enable-background:new 0 0 24 24;">
    <style type="text/css">
        .st0{fill:#F04D58;}
        .st1{fill:#FFCDC9;}
        .st2{fill:#F04D58;stroke:#F04D58;stroke-width:0.25;stroke-miterlimit:10;}
        .st4{fill:#417FF9;}
        .st5{fill:#B4CDFF;}
        .st6{fill:#417FF9;stroke:#417FF9;stroke-width:0.25;stroke-miterlimit:10;}
    </style>
    <g class="icon-big">
        <path class="st0" d="M1.4,2c-0.6,0-1,0.4-1,1v17c0,0.6,0.4,1,1,1h13c0.6,0,1-0.4,1-1V6.2c0-0.1-0.1-0.3-0.1-0.4
		l-3.7-3.7c-0.1,0-0.3-0.1-0.4-0.1C11.2,2,1.4,2,1.4,2z M1.9,3h9v3c0,0.2,0.2,0.4,0.4,0.5h0.1h3v13c0,0.3-0.2,0.5-0.5,0.5h-12
		c-0.3,0-0.5-0.2-0.5-0.5v-16C1.4,3.2,1.6,3,1.9,3z"/>
        <g>
            <path class="st2" d="M12,13.3c0-0.1-0.1-0.2-0.2-0.2l0,0c-0.2-0.2-0.6-0.3-1.2-0.3c-0.4,0-0.9,0.1-1.4,0.1c-0.3-0.2-0.5-0.3-0.7-0.5
	c-0.5-0.5-1-1.3-1.2-2.2c0-0.1,0.1-0.1,0.1-0.2c0,0,0.3-1.9,0.2-2.5c0-0.1,0-0.1-0.1-0.2V7.1C7.4,6.9,7.3,6.7,7.1,6.7H6.9
	c-0.3,0-0.5,0.2-0.6,0.4c-0.2,0.7,0,1.9,0.4,3.3l-0.1,0.2c-0.3,0.7-0.5,1.3-0.8,1.9l-0.1,0.1c-0.3,0.5-0.5,1.1-0.8,1.6l-0.3,0.1
	c0,0-0.4,0.2-0.5,0.3c-0.8,0.5-1.3,1.2-1.4,1.7c-0.1,0.2,0,0.4,0.2,0.5l0.2,0.1C3.3,17,3.4,17,3.5,17c0.6,0,1.2-0.8,2.1-2.7
	c1.1-0.4,2.1-0.7,3.3-0.9c0.8,0.5,1.8,0.9,2.4,0.9c0.1,0,0.2,0,0.3-0.1c0.1-0.1,0.2-0.1,0.3-0.2C12,13.9,12,13.6,12,13.3z M3.5,16.5
	L3.5,16.5c0.1-0.3,0.5-1,1.1-1.6c0.1-0.1,0.2-0.1,0.2-0.2C4.1,15.9,3.7,16.4,3.5,16.5z M7,7c0.2,0,0.3,0.5,0.3,1S7.2,8.8,7.1,9.1
	C7,8.7,7,8.1,7,7.7C6.9,7.7,6.9,7,7,7z M5.9,13.8c0.1-0.2,0.3-0.5,0.4-0.8c0.3-0.5,0.5-1.2,0.7-1.8c0.3,0.7,0.7,1.2,1.1,1.6
	c0.1,0.1,0.1,0.1,0.2,0.2C7.4,13.2,6.6,13.5,5.9,13.8z M11.7,13.7L11.7,13.7c-0.1,0.1-0.2,0.1-0.3,0.1c-0.3,0-0.8-0.2-1.3-0.5
	c0.2,0,0.4,0,0.6,0c0.4,0,0.4,0,0.8,0.1C11.7,13.5,11.7,13.6,11.7,13.7z"/>
        </g>
    </g>
    <g class="icon-small">
        <rect x="12.6" y="14" class="st5" width="10" height="8"/>
        <path class="st4" d="M12.6,13h10c0.6,0,1,0.4,1,1v8c0,0.6-0.4,1-1,1h-10c-0.6,0-1-0.4-1-1v-8
			C11.6,13.4,12,13,12.6,13z M12.6,14.5v7c0,0.3,0.2,0.5,0.5,0.5h9c0.3,0,0.5-0.2,0.5-0.5v-7c0-0.3-0.2-0.5-0.5-0.5h-9
			C12.8,14,12.6,14.2,12.6,14.5z"/>
        <g>
            <path class="st6" d="M19.2,20.8L18,17c-0.1-0.3-0.2-0.5-0.2-0.6v-0.2v0.2c-0.1,0.2-0.1,0.4-0.2,0.6l-1.2,3.8h-0.7l-1.5-5h0.7
		l0.8,3.3c0.1,0.3,0.2,0.7,0.2,1H16c0.2-0.6,0.2-0.9,0.3-0.9l1.1-3.4h0.8l0.8,2.6c0.2,0.6,0.3,1.2,0.4,1.8h0.1
		c0.1-0.3,0.2-0.7,0.3-1.1l0.9-3.2h0.7l-1.5,5L19.2,20.8L19.2,20.8z"/>
        </g>
    </g>
</svg>
