<?xml version="1.0" encoding="utf-8"?>
<!-- Generator: Adobe Illustrator 21.0.0, SVG Export Plug-In . SVG Version: 6.00 Build 0)  -->
<svg version="1.1" xmlns="http://www.w3.org/2000/svg" x="0px"
     y="0px"
     viewBox="0 0 180 220" style="enable-background:new 0 0 180 220;">
    <style type="text/css">
        .st0{fill:#F04D58;}
        .st1{fill:#F04D58;stroke:#F04D58;stroke-width:0.75;stroke-miterlimit:10;}
    </style>

    <g >
        <path  class="st0" d="M25,15.6c-6,0-10,4-10,10v170c0,6,4,10,10,10h130c6,0,10-4,10-10v-138c0-1-1-3-1-4l-37-37
		c-1,0-3-1-4-1C123,15.6,25,15.6,25,15.6z M30,25.6h90v30c0,2,2,4,4,5h1h30v130c0,3-2,5-5,5H30c-3,0-5-2-5-5v-160
		C25,27.6,27,25.6,30,25.6z"/>
    </g>
    <path class="st1" d="M132.5,122.2c0-1,0-2-1-2l0,0c-2-2-6.1-3-11.1-3c-4,0-8.1,1-13.1,1c-2-2-4-3-6.1-5.1c-5.1-4-9.1-10.1-12.1-18.2
	c0-1,0-1,0-2c0,0,3-17.2,2-22.2c0-1,0-1,0-2l0,0c-1-1-2-3-4-3h-1c-2,0-5.1,2-5.1,4c-1,6.1,0,16.2,3,29.3l-1,2
	c-2,4-5.1,10.1-7.1,15.2v1c-2,5.1-5.1,9.1-7.1,14.2h-3c0,0-4,2-5.1,3c-7.1,5.1-12.1,10.1-13.1,15.2c0,2,0,3,1,4l2,1c1,1,2,1,3,1
	c5.1,0,11.1-7.1,19.2-23.3c10.1-4,19.2-6.1,29.3-8.1c7.1,5.1,16.2,8.1,22.2,8.1c1,0,2,0,2-1c1-1,2-1,2-2
	C132.5,128.3,132.5,125.3,132.5,122.2z M53.6,150.5L53.6,150.5c1-3,5.1-8.1,10.1-14.2c1,0,2-1,2-2C59.7,145.5,56.6,149.5,53.6,150.5
	z M87,67.6c2,0,3,5.1,3,9.1c0,4-1,7.1-2,9.1c-1-2-2-8.1-2-11.1C86,74.7,86,67.6,87,67.6z M76.9,127.3c1-2,2-5.1,4-7.1
	c2-5.1,5.1-10.1,6.1-15.2c3,6.1,6.1,10.1,10.1,14.2c0,1,1,1,1,2C90,122.2,82.9,124.3,76.9,127.3z M129.4,126.3L129.4,126.3
	c0,1-2,1-3,1c-3,0-7.1-2-12.1-4c2,0,4,0,6.1,0c3,0,4,0,7.1,1C129.4,124.3,129.4,126.3,129.4,126.3z"/>
</svg>
