<?xml version="1.0" encoding="utf-8"?>
<!-- Generator: Adobe Illustrator 21.0.0, SVG Export Plug-In . SVG Version: 6.00 Build 0)  -->
<svg version="1.1" xmlns="http://www.w3.org/2000/svg"
     viewBox="0 0 24 24" style="enable-background:new 0 0 24 24;">
    <style type="text/css">
        .st0{fill:#417FF9;}
        .st1{fill:#B4CDFF;}
        .st2{fill:#417FF9;stroke:#417FF9;stroke-width:0.25;stroke-miterlimit:10;}
        .st4{fill:#F98526;}
        .st5{fill:#FFCD94;}
        .st6{fill:#F98526;stroke:#F98526;stroke-width:0.25;stroke-miterlimit:10;}
    </style>
    <g class="icon-big">
        <path class="st0" d="M1.4,2c-0.6,0-1,0.4-1,1v17c0,0.6,0.4,1,1,1h13c0.6,0,1-0.4,1-1V6.2c0-0.1-0.1-0.3-0.1-0.4
		l-3.7-3.7c-0.1,0-0.3-0.1-0.4-0.1C11.2,2,1.4,2,1.4,2z M1.9,3h9v3c0,0.2,0.2,0.4,0.4,0.5h0.1h3v13c0,0.3-0.2,0.5-0.5,0.5h-12
		c-0.3,0-0.5-0.2-0.5-0.5v-16C1.4,3.2,1.6,3,1.9,3z"/>
        <g>
            <path class="st2" d="M9.7,15.4l-1.6-5.3C8,9.7,7.9,9.4,7.9,9.3V9v0.3c-0.1,0.3-0.1,0.6-0.3,0.8l-1.6,5.3H5.1l-2-6.9h0.9L5.1,13
		c0.1,0.4,0.3,1,0.3,1.4h0.1c0.3-0.8,0.3-1.2,0.4-1.2l1.5-4.7h1.1l1.1,3.6c0.3,0.8,0.4,1.7,0.5,2.5h0.1c0.1-0.4,0.3-1,0.4-1.5
		l1.2-4.4h0.9l-2,6.9L9.7,15.4L9.7,15.4z"/>
        </g>
    </g>
    <g class="icon-small">
        <rect x="12.6" y="14" class="st5" width="10" height="8"/>
        <path class="st4" d="M12.6,13h10c0.6,0,1,0.4,1,1v8c0,0.6-0.4,1-1,1h-10c-0.6,0-1-0.4-1-1v-8
			C11.6,13.4,12,13,12.6,13z M12.6,14.5v7c0,0.3,0.2,0.5,0.5,0.5h9c0.3,0,0.5-0.2,0.5-0.5v-7c0-0.3-0.2-0.5-0.5-0.5h-9
			C12.8,14,12.6,14.2,12.6,14.5z"/>
        <g>
            <path class="st6" d="M16.9,20.6L16.9,20.6c-0.2,0-0.2-0.1-0.2-0.2l1.4-4.5c0-0.1,0.1-0.1,0.2-0.1h0c0.1,0,0.1,0,0.2,0.1
	c0,0,0,0.1,0,0.1l-1.4,4.5C17.1,20.6,17,20.6,16.9,20.6L16.9,20.6z M19.5,20c0,0-0.1,0-0.2-0.1c-0.1-0.1-0.1-0.2,0-0.3l1.7-1.5
	l-1.7-1.5c-0.1-0.1-0.1-0.2,0-0.3c0,0,0.1-0.1,0.2-0.1s0.1,0,0.2,0.1l1.9,1.7c0,0,0.1,0.1,0.1,0.1c0,0,0,0.1-0.1,0.1L19.6,20
	C19.6,20,19.5,20,19.5,20z M15.7,20c0,0-0.1,0-0.2-0.1l-1.9-1.7c0,0-0.1-0.1-0.1-0.1s0-0.1,0.1-0.1l1.9-1.7c0,0,0.1-0.1,0.2-0.1
	c0,0,0.1,0,0.2,0.1c0.1,0.1,0.1,0.2,0,0.3l-1.7,1.5l1.7,1.5c0.1,0.1,0.1,0.2,0,0.3C15.8,20,15.8,20,15.7,20z"/>
        </g>
    </g>
</svg>
