<?xml version="1.0" encoding="utf-8"?>
<!-- Generator: Adobe Illustrator 21.0.0, SVG Export Plug-In . SVG Version: 6.00 Build 0)  -->
<svg version="1.1" xmlns="http://www.w3.org/2000/svg" x="0px"
     y="0px"
     viewBox="0 0 180 220" style="enable-background:new 0 0 180 220;">
    <style type="text/css">
        .st0{fill:#417FF9;}
        .st1{fill:#417FF9;stroke:#417FF9;stroke-width:0.25;stroke-miterlimit:10;}
    </style>

    <g >
        <path  class="st0" d="M25,15.6c-6,0-10,4-10,10v170c0,6,4,10,10,10h130c6,0,10-4,10-10v-138c0-1-1-3-1-4l-37-37
		c-1,0-3-1-4-1C123,15.6,25,15.6,25,15.6z M30,25.6h90v30c0,2,2,4,4,5h1h30v130c0,3-2,5-5,5H30c-3,0-5-2-5-5v-160
		C25,27.6,27,25.6,30,25.6z"/>
    </g>
    <path class="st1" d="M109,154.7l-16.9-56c-1.1-4.2-2.1-7.4-2.1-8.5v-3.2v3.2c-1.1,3.2-1.1,6.3-3.2,8.5l-16.9,56h-9.5L39.3,81.8h9.5
	l11.6,47.5c1.1,4.2,3.2,10.6,3.2,14.8h1.1c3.2-8.5,3.2-12.7,4.2-12.7l15.8-49.6h11.6l11.6,38c3.2,8.5,4.2,18,5.3,26.4h1.1
	c1.1-4.2,3.2-10.6,4.2-15.8l12.7-46.5h9.5l-21.1,72.9L109,154.7L109,154.7z"/>
</svg>
